#!OML:ASF F:\twosubjects\two\Thursday\Session 1\justin.ASF
:FULLY-SPECIFIED
:DEGREES
454
root 21.0988 18.5756 3.74 24.4436 -84.0106 -7.48044
lowerback 13.8278 0.779233 0.762731
upperback 7.64156 0.745904 3.16036
thorax 0.261791 0.161245 2.76777
lowerneck -22.7639 -2.863 -9.70546
upperneck 28.724 -2.45514 5.19957
head 13.7554 -1.5138 3.25551
rclavicle 6.36111e-015 -1.03368e-014
rhumerus 25.8623 32.6261 -53.7444
rradius 67.0879
rwrist 25.2488
rhand -53.9292 50.2377
rfingers 7.12502
rthumb -26.3555 22.0491
lclavicle 6.36111e-015 -1.03368e-014
lhumerus 30.3002 -29.9101 63.5669
lradius 56.6737
lwrist -36.7127
lhand -40.9669 61.7021
lfingers 7.12502
lthumb -13.8998 -91.2176
rfemur -30.4444 -4.53086 24.0297
rtibia 26.9789
rfoot -13.3266 -10.3085
rtoes 0.233613
lfemur -17.0206 3.85544 -13.4175
ltibia 8.5354
lfoot -5.71031 0.0586538
ltoes -8.38211
455
root 21.1002 18.5777 3.7715 23.8774 -83.9235 -6.79787
lowerback 13.7905 1.09564 1.07197
upperback 7.57847 1.20449 2.86709
thorax 0.207205 0.409876 2.22419
lowerneck -22.5718 -3.11984 -8.76099
upperneck 28.5711 -3.10076 4.88899
head 13.6848 -1.72583 2.84714
rclavicle 1.70955e-014 -8.74653e-015
rhumerus 24.9962 31.3979 -55.1146
rradius 66.6977
rwrist 25.9241
rhand -54.3796 50.3561
rfingers 7.12502
rthumb -26.7866 22.2328
lclavicle 1.70955e-014 -8.74653e-015
lhumerus 31.143 -31.1909 63.3247
lradius 56.6038
lwrist -36.6152
lhand -41.3549 61.8432
lfingers 7.12502
lthumb -14.2736 -91.3327
rfemur -30.5518 -4.90555 23.9552
rtibia 26.9036
rfoot -13.1548 -10.077
rtoes -0.192978
lfemur -17.3036 3.72695 -13.5807
ltibia 8.7939
lfoot -5.7662 0.084408
ltoes -9.25314
456
root 21.1034 18.5854 3.78997 24.4372 -83.9736 -7.29723
lowerback 13.8139 1.0007 0.746361
upperback 7.56712 1.0432 3.13636
thorax 0.177536 0.313031 2.71148
lowerneck -22.807 -2.99905 -9.31598
upperneck 28.8463 -2.69589 4.87204
head 13.8281 -1.6216 3.01494
rclavicle 6.36111e-015 -7.95139e-015
rhumerus 25.8165 31.7484 -55.3692
rradius 66.1214
rwrist 26.471
rhand -54.8596 50.9409
rfingers 7.12502
rthumb -27.2458 22.8888
lclavicle 6.36111e-015 -7.95139e-015
lhumerus 30.7928 -30.6017 64.2397
lradius 56.4287
lwrist -36.8521
lhand -41.335 61.5031
lfingers 7.12502
lthumb -14.2545 -90.9939
rfemur -30.6395 -5.05073 24.04
rtibia 26.8878
rfoot -12.8071 -10.0856
rtoes -1.95744
lfemur -17.4323 3.78816 -13.6181
ltibia 8.94026
lfoot -5.70929 0.0895353
ltoes -9.83849
457
root 21.1104 18.5886 3.8073 24.8382 -83.9917 -7.63606
lowerback 13.7467 0.898809 0.521885
upperback 7.59782 0.879584 3.29178
thorax 0.24743 0.21977 3.02413
lowerneck -22.9235 -2.91675 -10.0097
upperneck 29.0278 -2.4575 5.33155
head 13.9274 -1.53834 3.36916
rclavicle -1.11319e-014 1.66979e-014
rhumerus 25.7389 32.0384 -55.7883
rradius 66.3619
rwrist 26.7396
rhand -55.3589 51.7547
rfingers 7.12502
rthumb -27.7234 23.7785
lclavicle -1.11319e-014 1.66979e-014
lhumerus 30.5532 -30.2457 64.7265
lradius 56.4492
lwrist -36.8182
lhand -41.1623 62.2619
lfingers 7.12502
lthumb -14.088 -91.7643
rfemur -30.7358 -5.33682 24.1752
rtibia 26.8502
rfoot -12.8842 -9.87298
rtoes -3.68504
lfemur -17.5753 3.81567 -13.6521
ltibia 9.05808
lfoot -5.72128 0.104409
ltoes -9.79892
458
root 21.1134 18.5839 3.83029 23.716 -83.9624 -6.46804
lowerback 13.6206 0.777967 0.546113
upperback 7.63758 0.720059 3.13497
thorax 0.366068 0.144487 2.86755
lowerneck -22.91 -2.82508 -10.0815
upperneck 28.9439 -2.36154 5.5378
head 13.8816 -1.47392 3.48123
rclavicle 1.74931e-014 1.90833e-014
rhumerus 26.2725 32.1013 -55.834
rradius 66.2535
rwrist 26.2639
rhand -55.1342 51.185
rfingers 7.12502
rthumb -27.5085 23.1745
lclavicle 1.74931e-014 1.90833e-014
lhumerus 30.5109 -30.3534 64.4884
lradius 56.6533
lwrist -36.4432
lhand -41.4223 63.4207
lfingers 7.12502
lthumb -14.3385 -92.9056
rfemur -30.7703 -5.3853 23.9319
rtibia 26.8456
rfoot -13.1345 -9.70526
rtoes -2.83892
lfemur -17.6127 3.71626 -13.8597
ltibia 9.02639
lfoot -5.53121 0.0572775
ltoes -11.5687
459
root 21.1155 18.5833 3.85122 23.4713 -83.9524 -6.17237
lowerback 13.4974 -0.0208176 0.147052
upperback 7.66976 -0.380761 3.41843
thorax 0.525444 -0.427287 3.5334
lowerneck -23.2064 -2.16039 -11.2556
upperneck 28.9175 -0.903325 5.56752
head 13.7973 -0.973959 3.95922
rclavicle 2.62396e-014 3.65764e-014
rhumerus 27.5562 34.2767 -55.4482
rradius 66.7373
rwrist 26.1387
rhand -54.8335 50.5742
rfingers 7.12502
rthumb -27.2209 22.5182
lclavicle 2.62396e-014 3.65764e-014
lhumerus 28.8872 -28.1105 65.2503
lradius 56.7524
lwrist -36.4986
lhand -41.8908 64.2765
lfingers 7.12502
lthumb -14.7899 -93.7288
rfemur -30.7997 -4.9483 23.6236
rtibia 26.8799
rfoot -13.0981 -9.99284
rtoes -1.3621
lfemur -17.601 3.6811 -13.967
ltibia 8.88718
lfoot -5.37924 -0.0344911
ltoes -13.7679
460
root 21.1144 18.5886 3.86708 23.3005 -83.8944 -6.00073
lowerback 13.4262 -0.0345687 0.0940909
upperback 7.73963 -0.411125 3.38397
thorax 0.63903 -0.445852 3.52967
lowerneck -23.5091 -2.2061 -11.3842
upperneck 28.9795 -0.937636 5.75998
head 13.8926 -0.974234 4.05964
rclavicle -1.07344e-014 1.39149e-014
rhumerus 27.4391 34.029 -55.9817
rradius 66.7936
rwrist 25.9757
rhand -55.0331 50.47
rfingers 7.12502
rthumb -27.4118 22.4441
lclavicle -1.07344e-014 1.39149e-014
lhumerus 28.8597 -28.0512 65.5228
lradius 56.7143
lwrist -36.6746
lhand -42.0044 64.6205
lfingers 7.12502
lthumb -14.8994 -94.0647
rfemur -30.7884 -4.92124 23.5606
rtibia 26.8911
rfoot -12.8938 -10.1901
rtoes -2.11573
lfemur -17.6228 3.61329 -14.0064
ltibia 8.87642
lfoot -5.5061 0.00261802
ltoes -11.8251
461
root 21.1128 18.5845 3.88795 22.3195 -83.8517 -5.0669
lowerback 13.443 0.384774 0.146322
upperback 7.7972 0.143586 3.18916
thorax 0.655918 -0.162765 3.22523
lowerneck -23.6747 -2.6452 -10.7752
upperneck 28.9986 -1.77813 5.72034
head 14.0202 -1.26712 3.78859
rclavicle 3.97569e-016 3.26007e-014
rhumerus 25.6897 32.3961 -56.3295
rradius 67.9129
rwrist 25.2285
rhand -54.8743 50.7332
rfingers 7.12502
rthumb -27.26 22.6833
lclavicle 3.97569e-016 3.26007e-014
lhumerus 29.6003 -29.2465 65.5108
lradius 56.8305
lwrist -36.6573
lhand -42.1024 64.0761
lfingers 7.12502
lthumb -14.9938 -93.5133
rfemur -30.7361 -5.4266 23.5965
rtibia 26.9002
rfoot -12.561 -10.0993
rtoes -4.69751
lfemur -17.568 3.51598 -14.1444
ltibia 8.83259
lfoot -5.73147 0.0901327
ltoes -8.37821
462
root 21.1217 18.5779 3.92012 22.9532 -83.6475 -5.70953
lowerback 13.5197 0.519615 0.406914
upperback 7.77673 0.351382 3.23308
thorax 0.583473 -0.0513367 3.09761
lowerneck -23.7161 -2.89321 -10.6443
upperneck 28.9594 -2.1272 5.56403
head 14.0471 -1.42026 3.63612
rclavicle 2.38542e-015 -2.06736e-014
rhumerus 24.8214 31.4974 -56.7944
rradius 68.2501
rwrist 25.1605
rhand -54.752 52.0623
rfingers 7.12502
rthumb -27.1429 23.9941
lclavicle 2.38542e-015 -2.06736e-014
lhumerus 29.7678 -29.7251 65.9484
lradius 56.9798
lwrist -36.486
lhand -42.3209 63.7468
lfingers 7.12502
lthumb -15.2043 -93.1681
rfemur -30.7588 -5.85261 23.7615
rtibia 26.9322
rfoot -12.385 -10.0509
rtoes -6.22101
lfemur -17.4501 3.33858 -14.0732
ltibia 8.50826
lfoot -5.70634 0.054704
ltoes -6.44684
463
root 21.1298 18.5848 3.94718 23.666 -83.3757 -6.46636
lowerback 13.5356 0.405035 0.62968
upperback 7.77796 0.224259 3.32952
thorax 0.584412 -0.110999 3.08911
lowerneck -23.8172 -2.87572 -11.1094
upperneck 29.0845 -2.02638 5.91757
head 14.1229 -1.38348 3.88499
rclavicle 4.77083e-015 -1.35174e-014
rhumerus 24.512 31.2493 -57.2841
rradius 68.3755
rwrist 25.4316
rhand -54.9376 53.3171
rfingers 7.12502
rthumb -27.3205 25.2768
lclavicle 4.77083e-015 -1.35174e-014
lhumerus 29.623 -29.5823 66.5841
lradius 56.9061
lwrist -36.5382
lhand -42.428 64.5658
lfingers 7.12502
lthumb -15.3075 -93.9793
rfemur -30.706 -5.64691 23.6707
rtibia 26.905
rfoot -12.6336 -10.2331
rtoes -4.78403
lfemur -17.3507 3.10947 -13.9397
ltibia 8.27914
lfoot -5.57202 -0.00786226
ltoes -6.32392
